<?xml version="1.0" encoding="utf-8" ?>
<svg xmlns="http://www.w3.org/2000/svg" xmlns:xlink="http://www.w3.org/1999/xlink" width="85" height="96">
	<clipPath id="cl_8">
		<rect width="84.75914" height="95.092468"/>
	</clipPath>
	<g clip-path="url(#cl_8)">
		<rect transform="translate(42 45)" x="-26" y="-44.5" width="52" height="89"/>
		<path fill="white" transform="matrix(-4.37114e-08 1 -1 -4.37114e-08 60 3.5)" d="M0.560547 14.041L0.560547 13.6924L0.84082 13.665Q1.32959 13.6069 1.58936 13.5181Q1.84912 13.4258 1.94482 13.125Q2.04395 12.8242 2.04395 12.1372L2.04395 5.92334Q2.04395 5.22266 1.94482 4.92871Q1.84912 4.63477 1.58936 4.5459Q1.32959 4.45361 0.84082 4.39551L0.560547 4.36816L0.560547 4.01953L2.63184 4.06055L8.26123 4.06055L8.30225 5.08252L8.42871 6.32666L8.09033 6.32666Q8.03564 5.62939 7.76221 5.24316Q7.48877 4.85693 7.0957 4.69629Q6.70605 4.53564 6.29248 4.50146Q5.87891 4.46729 5.53027 4.46729L3.2334 4.46729L3.2334 8.56885L4.80225 8.56885Q5.08252 8.56885 5.29102 8.43555Q5.50293 8.30225 5.63623 7.93994Q5.76953 7.57422 5.79688 6.88721L6.14551 6.88721L6.10449 8.76367L6.14551 10.835L5.79688 10.835Q5.79688 9.81299 5.54395 9.38574Q5.29102 8.9585 4.80225 8.9585L3.2334 8.9585L3.2334 12.1372Q3.2334 12.8242 3.34619 13.1387Q3.45898 13.4531 3.72217 13.5454Q3.98877 13.6377 4.43652 13.665L4.91504 13.6924L4.91504 14.041L2.64551 14L2.63184 14L0.560547 14.041ZM7.37947 14.041L7.37947 13.6924L7.50252 13.6787Q7.99471 13.6069 8.30916 13.4839Q8.62361 13.3574 8.85262 13.0703Q9.08504 12.7832 9.29695 12.2773L12.6842 4.06055L13.1593 4.06055L16.4644 12.2773Q16.7447 12.9644 17.066 13.2856Q17.3873 13.6069 17.9478 13.665L18.2281 13.6924L18.2281 14.041L16.4918 14L14.253 14.041L14.253 13.6924L14.5333 13.665Q15.022 13.6069 15.2305 13.4531Q15.4425 13.2993 15.4425 13.019Q15.4425 12.7388 15.2476 12.2637L14.5196 10.4453L10.5684 10.4453L9.81306 12.2637Q9.71736 12.5166 9.64558 12.7217Q9.57722 12.9233 9.57722 13.0771Q9.57722 13.3403 9.80623 13.4805Q10.0387 13.6206 10.5684 13.665L10.8487 13.6924L10.8487 14.041L9.07137 14L7.37947 14.041ZM10.753 9.99756L14.3487 9.99756L12.585 5.55762L10.753 9.99756ZM11.5494 2.4917Q11.2144 2.4917 11.0264 2.2627Q10.8385 2.03027 10.8385 1.69531Q10.8385 1.37061 11.0264 1.1416Q11.2144 0.90918 11.5494 0.90918Q11.9151 0.90918 12.0826 1.1416Q12.2501 1.37061 12.2501 1.69531Q12.2501 2.03027 12.0826 2.2627Q11.9151 2.4917 11.5494 2.4917ZM14.212 2.4917Q13.8736 2.4917 13.6856 2.2627Q13.4976 2.03027 13.4976 1.69531Q13.4976 1.37061 13.6856 1.1416Q13.8736 0.90918 14.212 0.90918Q14.5743 0.90918 14.7418 1.1416Q14.9093 1.37061 14.9093 1.69531Q14.9093 2.03027 14.7418 2.2627Q14.5743 2.4917 14.212 2.4917ZM18.5785 14.041L18.5785 13.6924L18.8587 13.665Q19.3475 13.6069 19.6073 13.5249Q19.8671 13.4395 19.9628 13.1318Q20.0619 12.8242 20.0619 12.1372L20.0619 5.92334Q20.0619 5.22266 19.9628 4.92188Q19.8671 4.62109 19.6073 4.52881Q19.3475 4.43652 18.8587 4.39551L18.5785 4.36816L18.5785 4.01953L20.6771 4.06055L22.4852 4.01953L22.4852 4.34082L22.2596 4.36816Q21.8529 4.40918 21.6341 4.49463Q21.4188 4.57666 21.3334 4.8501Q21.2513 5.12354 21.2513 5.75244L21.2513 11.5903Q21.2513 12.2773 21.3265 12.7251Q21.4051 13.1729 21.7538 13.3848Q22.1058 13.5933 22.8885 13.5933L23.9413 13.5933Q25.1581 13.5933 25.6947 12.9438Q26.2347 12.291 26.3338 11.0605L26.6415 11.0605L26.5013 14.041L20.6498 14L18.5785 14.041ZM31.459 14.1538Q30.8985 14.1538 30.4439 13.9727Q29.9893 13.7915 29.6236 13.6069Q29.316 13.4395 29.1109 13.3574Q28.9092 13.272 28.7554 13.272Q28.5606 13.272 28.482 13.4326Q28.4068 13.5933 28.3624 13.7915L28.3214 14L27.9727 14L28.0411 12.3491L28.0001 10.541L28.3487 10.541L28.5025 11.2007Q28.6563 11.8159 29.0562 12.4038Q29.4561 12.9917 30.0645 13.3711Q30.6729 13.7471 31.459 13.7471Q31.8931 13.7471 32.2896 13.5591Q32.6895 13.3711 32.9493 12.978Q33.209 12.585 33.209 11.9561Q33.209 11.0195 32.5972 10.4453Q31.9888 9.87109 30.9122 9.35156L30.3243 9.07129Q29.275 8.56885 28.7623 7.96045Q28.253 7.34863 28.253 6.39844Q28.253 5.65674 28.6153 5.08252Q28.981 4.5083 29.6168 4.18701Q30.2525 3.86572 31.0797 3.86572Q31.6539 3.86572 32.0435 4.01953Q32.4366 4.17334 32.6622 4.28271Q33.0245 4.46729 33.2364 4.46729Q33.4586 4.46729 33.503 4.0332L33.8516 4.0332L33.8106 5.37646L33.838 6.7334L33.4893 6.7334Q33.4039 5.95068 33.0518 5.39697Q32.7032 4.84326 32.2042 4.54932Q31.7086 4.25537 31.1514 4.25537Q30.3243 4.25537 29.8116 4.73389Q29.3023 5.20898 29.3023 5.95068Q29.3023 6.74707 29.8184 7.20508Q30.338 7.65967 31.1651 8.06299L31.7393 8.34326Q32.5084 8.72266 33.0587 9.12256Q33.6124 9.51904 33.9131 10.0522Q34.2173 10.5854 34.2173 11.3818Q34.2173 12.209 33.8448 12.8379Q33.4722 13.4668 32.8502 13.812Q32.2281 14.1538 31.459 14.1538ZM40.4444 14.1538Q39.0191 14.1538 37.9903 13.4976Q36.9615 12.8379 36.4077 11.6826Q35.854 10.5273 35.854 9.03027Q35.854 7.90918 36.2163 6.97266Q36.5821 6.03271 37.2246 5.33545Q37.8706 4.63477 38.7149 4.25195Q39.5625 3.86572 40.5298 3.86572Q41.3843 3.86572 41.9346 4.05371Q42.4883 4.2417 42.7686 4.38184Q42.9532 4.46729 43.107 4.52881Q43.2608 4.59033 43.3155 4.59033Q43.4693 4.59033 43.5684 4.47412Q43.6675 4.35449 43.6949 4.06055L44.0435 4.06055L44.0161 5.69775L44.0435 7.33496L43.6949 7.33496Q43.4829 5.87891 42.6831 5.08252Q41.8867 4.28271 40.5708 4.28271Q39.648 4.28271 39.0157 4.65527Q38.3867 5.02441 38.0074 5.67725Q37.6314 6.32666 37.4571 7.18799Q37.2827 8.04932 37.2827 9.03027Q37.2827 10.5 37.5972 11.5493Q37.9117 12.5986 38.6328 13.166Q39.354 13.7334 40.5708 13.7334Q41.4834 13.7334 42.1534 13.313Q42.8267 12.8926 43.2368 12.1953Q43.6504 11.4946 43.7359 10.6538L44.0708 10.6538L44.0435 12.3628L44.0845 14L43.7495 14L43.7085 13.8462Q43.6504 13.665 43.5718 13.5044Q43.4966 13.3403 43.3155 13.3403Q43.2163 13.3403 43.083 13.3984Q42.9532 13.4531 42.7823 13.5386Q42.42 13.7197 41.8321 13.9385Q41.2442 14.1538 40.4444 14.1538ZM45.6264 14.041L45.6264 13.6924L45.9066 13.665Q46.3954 13.6069 46.6552 13.5181Q46.9149 13.4258 47.0107 13.125Q47.1098 12.8242 47.1098 12.1372L47.1098 5.92334Q47.1098 5.22266 47.0107 4.92871Q46.9149 4.63477 46.6552 4.5459Q46.3954 4.45361 45.9066 4.39551L45.6264 4.36816L45.6264 4.01953L47.6977 4.06055L47.7113 4.06055L49.7826 4.01953L49.7826 4.36816L49.5023 4.39551Q49.0273 4.45361 48.7607 4.5459Q48.4975 4.63477 48.3983 4.92871Q48.2992 5.22266 48.2992 5.92334L48.2992 8.62354L53.6347 8.62354L53.6347 5.92334Q53.6347 5.22266 53.5356 4.92871Q53.4364 4.63477 53.1767 4.5459Q52.9203 4.45361 52.4281 4.39551L52.1513 4.36816L52.1513 4.01953L54.2226 4.06055L54.2362 4.06055L56.3075 4.01953L56.3075 4.36816L56.0273 4.39551Q55.5522 4.45361 55.2856 4.5459Q55.019 4.63477 54.9198 4.92871Q54.8241 5.22266 54.8241 5.92334L54.8241 12.1372Q54.8241 12.8242 54.9198 13.125Q55.019 13.4258 55.2856 13.5181Q55.5522 13.6069 56.0273 13.665L56.3075 13.6924L56.3075 14.041L54.2362 14L54.2226 14L52.1513 14.041L52.1513 13.6924L52.4281 13.665Q52.9203 13.6069 53.1767 13.5181Q53.4364 13.4258 53.5356 13.125Q53.6347 12.8242 53.6347 12.1372L53.6347 9.07129L48.2992 9.07129L48.2992 12.1372Q48.2992 12.8242 48.3983 13.125Q48.4975 13.4258 48.7607 13.5181Q49.0273 13.6069 49.5023 13.665L49.7826 13.6924L49.7826 14.041L47.7113 14L47.6977 14L45.6264 14.041ZM57.4283 14.041L57.4283 13.6924L57.7086 13.665Q58.1974 13.6069 58.4571 13.5181Q58.7169 13.4258 58.8126 13.125Q58.9117 12.8242 58.9117 12.1372L58.9117 5.92334Q58.9117 5.22266 58.8126 4.92871Q58.7169 4.63477 58.4571 4.5459Q58.1974 4.45361 57.7086 4.39551L57.4283 4.36816L57.4283 4.01953L59.4996 4.06055L64.9308 4.06055L64.9581 5.06885L65.0709 6.35742L64.7359 6.35742Q64.6368 5.7251 64.4762 5.34912Q64.3155 4.96973 64.0216 4.78174Q63.7276 4.59033 63.2286 4.52881Q62.733 4.46729 61.9503 4.46729L60.1012 4.46729L60.1012 8.56885L61.67 8.56885Q61.9503 8.56885 62.1588 8.43555Q62.3707 8.30225 62.504 7.93994Q62.6373 7.57422 62.6647 6.88721L63.0133 6.88721L62.9723 8.76367L63.0133 10.835L62.6647 10.835Q62.6647 9.81299 62.4117 9.38574Q62.1588 8.9585 61.67 8.9585L60.1012 8.9585L60.1012 12.5029Q60.1012 13.1729 60.3951 13.3916Q60.6891 13.6069 61.4889 13.6069L62.7911 13.6069Q63.6012 13.6069 64.0558 13.4258Q64.5104 13.2446 64.7325 12.6909Q64.9581 12.1372 65.0436 11.0605L65.3922 11.0605L65.2965 12.7388L65.2521 14L59.4996 14L57.4283 14.041ZM66.5006 14.0547L66.5006 13.7061L66.7809 13.6787Q67.2697 13.6206 67.5294 13.5386Q67.7892 13.4531 67.8849 13.1455Q67.984 12.8379 67.984 12.1372L67.984 4.91504Q67.8576 4.76123 67.6046 4.57324Q67.3551 4.38184 66.8629 4.38184L66.4425 4.38184L66.4425 4.01953L69.1598 4.06055Q69.4127 4.40918 69.84 4.9834Q70.2672 5.55762 70.7902 6.2583Q71.3165 6.95898 71.8737 7.69385Q72.4342 8.42871 72.9606 9.11572Q73.487 9.79932 73.9039 10.3462Q74.3244 10.8931 74.5636 11.2144L74.5636 5.92334Q74.5636 5.22266 74.4645 4.92188Q74.3688 4.62109 74.109 4.52881Q73.8493 4.43652 73.3605 4.39551L73.0802 4.36816L73.0802 4.01953L74.8986 4.06055L76.6076 4.01953L76.6076 4.36816L76.3273 4.39551Q75.8522 4.45361 75.5856 4.5459Q75.319 4.63477 75.2199 4.92871Q75.1242 5.22266 75.1242 5.92334L75.1242 14L74.7038 14Q74.4782 13.5386 74.0372 12.8618Q73.5963 12.1816 73.0221 11.3682Q72.4513 10.5547 71.8258 9.71045Q71.2038 8.86279 70.5885 8.06641Q69.9733 7.2666 69.4401 6.61035Q68.9069 5.95068 68.5446 5.5166L68.5446 12.1372Q68.5446 12.8379 68.6403 13.1455Q68.7394 13.4531 69.006 13.5386Q69.2726 13.6206 69.7477 13.6787L70.028 13.7061L70.028 14.0547L68.237 14L66.5006 14.0547Z"/>
		<path fill="white" transform="matrix(-4.37114e-08 -1 1 -4.37114e-08 23.5 85.5)" d="M0.560547 14.041L0.560547 13.6924L0.84082 13.665Q1.32959 13.6069 1.58936 13.5181Q1.84912 13.4258 1.94482 13.125Q2.04395 12.8242 2.04395 12.1372L2.04395 5.92334Q2.04395 5.22266 1.94482 4.92871Q1.84912 4.63477 1.58936 4.5459Q1.32959 4.45361 0.84082 4.39551L0.560547 4.36816L0.560547 4.01953L2.63184 4.06055L4.53564 4.06055Q5.37646 4.06055 6.10449 4.1665Q6.83252 4.26904 7.37598 4.55615Q7.92285 4.84326 8.23047 5.39014Q8.5415 5.93701 8.5415 6.80518Q8.5415 8.04932 7.60156 8.82178Q6.66504 9.59082 4.87061 9.59082L3.2334 9.59082L3.2334 12.1372Q3.2334 12.8242 3.35303 13.125Q3.47266 13.4258 3.78027 13.5181Q4.08789 13.6069 4.64844 13.665L4.95605 13.6924L4.95605 14.041L2.59082 14L0.560547 14.041ZM5.08252 4.45361L3.2334 4.45361L3.2334 9.17041L4.87061 9.17041Q5.83789 9.17041 6.34033 8.89014Q6.84619 8.60986 7.02734 8.08008Q7.2085 7.54688 7.2085 6.80518Q7.2085 6.00537 7.00684 5.53711Q6.80518 5.06885 6.47363 4.82959Q6.14551 4.59033 5.77295 4.52197Q5.40381 4.45361 5.08252 4.45361ZM17.387 14.1538Q16.618 14.1538 16.2454 13.6309Q15.8763 13.1045 15.7635 12.3354Q15.6951 11.7749 15.5482 11.2144Q15.4012 10.6538 15.0833 10.1855Q14.7689 9.71729 14.2015 9.43701Q13.6375 9.15674 12.7249 9.15674L12.1234 9.15674L12.1234 12.1372Q12.1234 12.8242 12.2225 13.125Q12.3216 13.4258 12.5848 13.5181Q12.8514 13.6069 13.3265 13.665L13.6068 13.6924L13.6068 14.041L11.5355 14L11.5218 14L9.45052 14.041L9.45052 13.6924L9.73079 13.665Q10.2196 13.6069 10.4793 13.5181Q10.7391 13.4258 10.8348 13.125Q10.9339 12.8242 10.9339 12.1372L10.9339 5.92334Q10.9339 5.22266 10.8348 4.92871Q10.7391 4.63477 10.4793 4.5459Q10.2196 4.45361 9.73079 4.39551L9.45052 4.36816L9.45052 4.01953L11.5218 4.06055L13.4803 4.06055Q14.4339 4.06055 15.244 4.2793Q16.0574 4.49463 16.5531 5.02783Q17.0521 5.55762 17.0521 6.51123Q17.0521 7.34863 16.6795 7.875Q16.3104 8.40137 15.702 8.6748Q15.0936 8.94482 14.3792 9.05762Q15.4149 9.12939 16.0643 9.76514Q16.7171 10.4009 16.8983 11.6348Q17.0247 12.4175 17.2127 12.8584Q17.4007 13.2993 17.6331 13.4771Q17.8656 13.6514 18.1014 13.6514Q18.2552 13.6514 18.4022 13.5967Q18.5491 13.5386 18.6619 13.4805L18.7611 13.8325Q18.5355 13.9453 18.1561 14.0479Q17.7801 14.1538 17.387 14.1538ZM13.5111 4.42285L12.1234 4.42285L12.1234 8.77734L13.2991 8.77734Q14.6424 8.77734 15.1824 8.23389Q15.7225 7.68701 15.7225 6.59326Q15.7225 5.55762 15.2303 4.99023Q14.7415 4.42285 13.5111 4.42285ZM24.205 14.1538Q23.1557 14.1538 22.267 13.7778Q21.3784 13.3984 20.7255 12.7114Q20.0761 12.0244 19.7104 11.0811Q19.3481 10.1377 19.3481 9.00293Q19.3481 7.86816 19.7104 6.93164Q20.0761 5.9917 20.7255 5.30811Q21.3784 4.62109 22.267 4.24512Q23.1557 3.86572 24.205 3.86572Q25.2543 3.86572 26.143 4.24512Q27.0351 4.62109 27.6845 5.30811Q28.3374 5.9917 28.6997 6.93164Q29.0654 7.86816 29.0654 9.00293Q29.0654 10.1377 28.6997 11.0811Q28.3374 12.0244 27.6845 12.7114Q27.0351 13.3984 26.143 13.7778Q25.2543 14.1538 24.205 14.1538ZM24.205 13.7334Q25.4252 13.7334 26.1806 13.1592Q26.936 12.585 27.2846 11.5288Q27.6367 10.4727 27.6367 9.00293Q27.6367 7.5332 27.2846 6.47705Q26.936 5.41748 26.1806 4.8501Q25.4252 4.28271 24.205 4.28271Q23.0019 4.28271 22.2397 4.8501Q21.4775 5.41748 21.1254 6.47705Q20.7768 7.5332 20.7768 9.00293Q20.7768 10.4727 21.1254 11.5288Q21.4775 12.585 22.2397 13.1592Q23.0019 13.7334 24.205 13.7334ZM31.6102 14.1538Q31.2069 14.1538 30.8344 14Q30.4652 13.8462 30.2328 13.5659Q30.0004 13.2856 30.0004 12.9233Q30.0004 12.6431 30.1815 12.4141Q30.3661 12.1816 30.7284 12.1816Q30.995 12.1816 31.1762 12.3423Q31.3607 12.5029 31.3607 12.7524Q31.3607 12.8789 31.33 12.9712Q31.3026 13.0635 31.2753 13.1318Q31.2479 13.2173 31.2274 13.2891Q31.2069 13.3574 31.2069 13.4258Q31.2069 13.5659 31.3095 13.6924Q31.4154 13.8188 31.6957 13.8188Q32.0888 13.8188 32.2973 13.6309Q32.5092 13.4395 32.598 13.1763Q32.6903 12.9097 32.7108 12.6567Q32.7313 12.4038 32.7313 12.2773L32.7313 5.92334Q32.7313 5.22266 32.6322 4.92871Q32.5365 4.63477 32.2767 4.5459Q32.017 4.45361 31.5282 4.39551L31.2479 4.36816L31.2479 4.01953L33.3192 4.06055L33.3329 4.06055L35.4042 4.01953L35.4042 4.36816L35.1273 4.39551Q34.6488 4.45361 34.3822 4.5459Q34.119 4.63477 34.0199 4.92871Q33.9208 5.22266 33.9208 5.92334L33.9208 12.0244Q33.9208 12.7388 33.7089 13.1592Q33.5004 13.5796 33.1586 13.7983Q32.8168 14.0137 32.41 14.082Q32.0033 14.1538 31.6102 14.1538ZM36.3864 14.041L36.3864 13.6924L36.6667 13.665Q37.1555 13.6069 37.4152 13.5181Q37.675 13.4258 37.7707 13.125Q37.8698 12.8242 37.8698 12.1372L37.8698 5.92334Q37.8698 5.22266 37.7707 4.92871Q37.675 4.63477 37.4152 4.5459Q37.1555 4.45361 36.6667 4.39551L36.3864 4.36816L36.3864 4.01953L38.4577 4.06055L43.8889 4.06055L43.9162 5.06885L44.029 6.35742L43.694 6.35742Q43.5949 5.7251 43.4343 5.34912Q43.2736 4.96973 42.9797 4.78174Q42.6857 4.59033 42.1867 4.52881Q41.6911 4.46729 40.9084 4.46729L39.0593 4.46729L39.0593 8.56885L40.6281 8.56885Q40.9084 8.56885 41.1169 8.43555Q41.3288 8.30225 41.4621 7.93994Q41.5954 7.57422 41.6227 6.88721L41.9714 6.88721L41.9304 8.76367L41.9714 10.835L41.6227 10.835Q41.6227 9.81299 41.3698 9.38574Q41.1169 8.9585 40.6281 8.9585L39.0593 8.9585L39.0593 12.5029Q39.0593 13.1729 39.3532 13.3916Q39.6472 13.6069 40.447 13.6069L41.7492 13.6069Q42.5593 13.6069 43.0139 13.4258Q43.4684 13.2446 43.6906 12.6909Q43.9162 12.1372 44.0016 11.0605L44.3503 11.0605L44.2546 12.7388L44.2101 14L38.4577 14L36.3864 14.041ZM50.3703 14.1538Q48.945 14.1538 47.9162 13.4976Q46.8874 12.8379 46.3337 11.6826Q45.78 10.5273 45.78 9.03027Q45.78 7.90918 46.1423 6.97266Q46.508 6.03271 47.1506 5.33545Q47.7966 4.63477 48.6408 4.25195Q49.4885 3.86572 50.4558 3.86572Q51.3103 3.86572 51.8606 4.05371Q52.4143 4.2417 52.6945 4.38184Q52.8791 4.46729 53.0329 4.52881Q53.1867 4.59033 53.2414 4.59033Q53.3952 4.59033 53.4944 4.47412Q53.5935 4.35449 53.6208 4.06055L53.9695 4.06055L53.9421 5.69775L53.9695 7.33496L53.6208 7.33496Q53.4089 5.87891 52.6091 5.08252Q51.8127 4.28271 50.4968 4.28271Q49.5739 4.28271 48.9416 4.65527Q48.3127 5.02441 47.9333 5.67725Q47.5573 6.32666 47.383 7.18799Q47.2087 8.04932 47.2087 9.03027Q47.2087 10.5 47.5232 11.5493Q47.8376 12.5986 48.5588 13.166Q49.28 13.7334 50.4968 13.7334Q51.4094 13.7334 52.0793 13.313Q52.7527 12.8926 53.1628 12.1953Q53.5764 11.4946 53.6618 10.6538L53.9968 10.6538L53.9695 12.3628L54.0105 14L53.6755 14L53.6345 13.8462Q53.5764 13.665 53.4978 13.5044Q53.4226 13.3403 53.2414 13.3403Q53.1423 13.3403 53.009 13.3984Q52.8791 13.4531 52.7082 13.5386Q52.3459 13.7197 51.758 13.9385Q51.1701 14.1538 50.3703 14.1538ZM57.8766 14.041L57.8766 13.6924L58.1842 13.665Q58.7584 13.6069 59.0592 13.5181Q59.36 13.4258 59.4796 13.125Q59.5992 12.8242 59.5992 12.1372L59.5992 4.43652L57.6236 4.43652Q56.981 4.43652 56.6085 4.68262Q56.2393 4.92871 55.9659 5.47559Q55.6925 6.01904 55.3268 6.93164L55.0328 6.85986L55.3849 5.13721L55.5387 4.01953L59.5274 4.06055L60.857 4.06055L64.8629 4.01953L65.0167 5.13721L65.3653 6.85986L65.0577 6.94531Q64.7364 6.13184 64.463 5.57129Q64.1895 5.01074 63.8238 4.72363Q63.4615 4.43652 62.86 4.43652L60.7887 4.43652L60.7887 12.1372Q60.7887 12.8242 60.9049 13.125Q61.0245 13.4258 61.3321 13.5181Q61.6432 13.6069 62.2003 13.665L62.5113 13.6924L62.5113 14.041L60.2281 14L57.8766 14.041Z"/>
	</g>
</svg>
