<?xml version="1.0" encoding="utf-8" ?>
<svg xmlns="http://www.w3.org/2000/svg" xmlns:xlink="http://www.w3.org/1999/xlink" width="140" height="140">
	<clipPath id="cl_6">
		<rect width="140" height="140"/>
	</clipPath>
	<g clip-path="url(#cl_6)">
		<path fill="#F2F2F2" transform="translate(70 124)" d="M-2.44797e-06 -115.5L-47.3977 -94L-49.5 -94L-49.5 -85L49.5 -85L49.5 -94L47.3977 -94L-2.44797e-06 -115.5ZM-32 -80.5L-44 -80.5L-44 -18.5L-32 -18.5L-32 -80.5ZM-13 -80.5L-25 -80.5L-25 -18.5L-13 -18.5L-13 -80.5ZM6 -18.5L6 -80.5L-6 -80.5L-6 -18.5L6 -18.5ZM13 -80.5L25 -80.5L25 -18.5L13 -18.5L13 -80.5ZM32 -80.5L44 -80.5L44 -18.5L32 -18.5L32 -80.5ZM45 -13.5L45 -8L49.5 -8L49.5 8L-49.5 8L-49.5 -8L-45 -8L-45 -13.5L45 -13.5Z" fill-rule="evenodd"/>
	</g>
</svg>
